<svg xmlns="http://www.w3.org/2000/svg" xmlns:xlink="http://www.w3.org/1999/xlink" viewBox="0,0,256,256" width="100px" height="100px"><g fill="#959595" fill-rule="nonzero" stroke="none" stroke-width="1" stroke-linecap="butt" stroke-linejoin="miter" stroke-miterlimit="10" stroke-dasharray="" stroke-dashoffset="0" font-family="none" font-weight="none" font-size="none" text-anchor="none" style="mix-blend-mode: normal"><g transform="scale(2.56,2.56)"><path d="M50,12.00391c-0.82988,-0.00013 -1.65989,0.21081 -2.40039,0.63281l-29.18945,16.62109c-1.486,0.847 -2.41016,2.42605 -2.41016,4.12305v33.24024c0,1.695 0.92316,3.27505 2.41016,4.12305l29.18945,16.61914c0.739,0.423 1.56844,0.63477 2.39844,0.63477c0.829,0 1.65944,-0.21081 2.39844,-0.63281l29.19336,-16.62109c1.486,-0.848 2.41016,-2.429 2.41016,-4.125v-33.24023c0,-1.697 -0.92316,-3.27609 -2.41016,-4.12109l-29.19141,-16.62109c-0.739,-0.4225 -1.56856,-0.63269 -2.39844,-0.63281zM49.99805,14.00195c0.487,0 0.97616,0.12309 1.41016,0.37109l29.19336,16.62109c0.863,0.491 1.39844,1.40577 1.39844,2.38477v33.24024c0,0.98 -0.53739,1.89472 -1.40039,2.38672l-29.19336,16.62109c-0.869,0.496 -1.94741,0.496 -2.81641,0l-29.19141,-16.61914c-0.862,-0.492 -1.39844,-1.40772 -1.39844,-2.38672v-33.24023c0,-0.98 0.53639,-1.89572 1.40039,-2.38672l29.18945,-16.62109c0.434,-0.248 0.9212,-0.37109 1.4082,-0.37109zM49.96875,16.49609c-0.06477,0.00736 -0.1287,0.0263 -0.18945,0.06055l-2.90039,1.62891c-0.24,0.135 -0.32545,0.43869 -0.18945,0.67969c0.091,0.163 0.26055,0.25586 0.43555,0.25586c0.083,0 0.16614,-0.01945 0.24414,-0.06445l2.90039,-1.62891c0.24,-0.135 0.32741,-0.44064 0.19141,-0.68164c-0.1005,-0.18 -0.29789,-0.27208 -0.49219,-0.25zM45.44336,19.03516c-0.06477,0.00744 -0.1287,0.02825 -0.18945,0.0625l-9.73828,5.4668c-0.24,0.135 -0.32741,0.43869 -0.19141,0.67969c0.091,0.163 0.2625,0.25586 0.4375,0.25586c0.083,0 0.16614,-0.02045 0.24414,-0.06445l9.73828,-5.4668c0.24,-0.135 0.32741,-0.44064 0.19141,-0.68164c-0.1005,-0.18075 -0.29789,-0.27426 -0.49219,-0.25195zM49.9707,25.95508c-13.258,0 -24.04492,10.78692 -24.04492,24.04492c0,13.259 10.78692,24.04492 24.04492,24.04492c8.611,0 16.61749,-4.66011 20.89648,-12.16211c0.067,-0.117 0.08288,-0.25577 0.04687,-0.38477c-0.036,-0.129 -0.12323,-0.23774 -0.24023,-0.30273l-10.32031,-5.67773c-0.236,-0.129 -0.53487,-0.05041 -0.67187,0.18359c-2.024,3.435 -5.74594,5.57031 -9.71094,5.57031c-6.214,0 -11.27148,-5.05548 -11.27148,-11.27148c0,-6.214 5.05648,-11.27148 11.27148,-11.27148c3.945,0 7.53737,2.02125 9.60938,5.40625c0.143,0.233 0.44378,0.30583 0.67578,0.17383l10.23047,-5.8457c0.116,-0.067 0.20233,-0.17764 0.23633,-0.30664c0.034,-0.13 0.01427,-0.26781 -0.05273,-0.38281c-4.318,-7.289 -12.25022,-11.81836 -20.69922,-11.81836zM49.9707,26.95508c7.928,0 15.38222,4.16153 19.57422,10.89453l-9.37305,5.35547c-2.288,-3.439 -6.06617,-5.47656 -10.20117,-5.47656c-6.766,0 -12.27148,5.50548 -12.27148,12.27148c0,6.766 5.50448,12.27148 12.27148,12.27148c4.156,0 8.06245,-2.15144 10.31445,-5.64844l9.45508,5.20117c-4.158,6.934 -11.68553,11.2207 -19.76953,11.2207c-12.706,0 -23.04492,-10.33792 -23.04492,-23.04492c0,-12.706 10.33892,-23.04492 23.04492,-23.04492zM31.32031,26.96484c-0.06477,0.00744 -0.1287,0.0263 -0.18945,0.06055l-10.85352,6.0918c-0.157,0.088 -0.25391,0.25455 -0.25391,0.43555v29.69727c0,0.276 0.224,0.5 0.5,0.5c0.277,0 0.499,-0.224 0.5,-0.5v-29.4043l10.59766,-5.94922c0.24,-0.135 0.32545,-0.43869 0.18945,-0.67969c-0.1005,-0.18075 -0.29594,-0.27427 -0.49023,-0.25195zM49.9707,28.95508c-11.604,0 -21.04492,9.44092 -21.04492,21.04492c0,8.833 5.5883,16.78983 13.9043,19.79883c0.056,0.02 0.11292,0.0293 0.16992,0.0293c0.204,0 0.3967,-0.12608 0.4707,-0.33008c0.095,-0.26 -0.04078,-0.54663 -0.30078,-0.64062c-7.922,-2.867 -13.24414,-10.44442 -13.24414,-18.85742c0,-11.053 8.99192,-20.04492 20.04492,-20.04492c0.276,0 0.5,-0.224 0.5,-0.5c0,-0.276 -0.224,-0.5 -0.5,-0.5zM55.05273,29.625c-0.19289,0.02686 -0.35886,0.16889 -0.41211,0.36914c-0.071,0.267 0.08847,0.54233 0.35547,0.61133c4.104,1.076 7.84048,3.47677 10.52148,6.75977c0.1,0.121 0.24172,0.18359 0.38672,0.18359c0.112,0 0.22441,-0.03633 0.31641,-0.11133c0.214,-0.175 0.24627,-0.49108 0.07227,-0.70508c-2.814,-3.446 -6.73502,-5.96475 -11.04102,-7.09375c-0.0675,-0.019 -0.13492,-0.02263 -0.19922,-0.01367zM79.47656,33.05273c-0.276,0 -0.5,0.224 -0.5,0.5v32.60156l-13.47266,7.5625c-0.24,0.135 -0.32545,0.43869 -0.18945,0.67969c0.091,0.163 0.26055,0.25586 0.43555,0.25586c0.083,0 0.16714,-0.0195 0.24414,-0.0625l13.72656,-7.70508c0.157,-0.088 0.25586,-0.25455 0.25586,-0.43555v-32.89648c0,-0.276 -0.224,-0.5 -0.5,-0.5zM46.21875,69.69336c-0.269,-0.051 -0.53198,0.12644 -0.58398,0.39844c-0.052,0.271 0.12548,0.53198 0.39648,0.58398c1.292,0.245 2.61845,0.36914 3.93945,0.36914c0.276,0 0.5,-0.22205 0.5,-0.49805c0,-0.276 -0.224,-0.5 -0.5,-0.5c-1.259,0 -2.52195,-0.12052 -3.75195,-0.35352zM62.56836,75.4082c-0.06477,0.00744 -0.1287,0.02825 -0.18945,0.0625l-5.125,2.87695c-0.24,0.135 -0.32545,0.43869 -0.18945,0.67969c0.091,0.163 0.26055,0.25586 0.43555,0.25586c0.083,0 0.16614,-0.01945 0.24414,-0.06445l5.125,-2.87695c0.24,-0.135 0.32741,-0.44064 0.19141,-0.68164c-0.1005,-0.18075 -0.29789,-0.27426 -0.49219,-0.25195z"></path></g></g></svg>