<svg xmlns="http://www.w3.org/2000/svg" xmlns:xlink="http://www.w3.org/1999/xlink" viewBox="0,0,256,256" width="50px" height="50px"><g fill="#959595" fill-rule="nonzero" stroke="none" stroke-width="1" stroke-linecap="butt" stroke-linejoin="miter" stroke-miterlimit="10" stroke-dasharray="" stroke-dashoffset="0" font-family="none" font-weight="none" font-size="none" text-anchor="none" style="mix-blend-mode: normal"><g transform="scale(5.12,5.12)"><path d="M7.91,9.32l0.09,0.09v25.89l-5.09,-5.09c-1.81,-1.81 -2.32,-4.59 -1.27,-6.92zM35.3,8h-25.89l-0.09,-0.09l13.97,-6.27c2.33,-1.05 5.11,-0.54 6.92,1.27zM37.59,39h-25.88l-0.54,-0.54c-0.75,-0.76 -1.17,-1.76 -1.17,-2.83v-24.22zM13.71,41h25.29v6c0,0.55 -0.45,1 -1,1h-16.9c-0.27,0 -0.52,-0.11 -0.71,-0.29l-4.7,-4.7l0.02,-0.02zM48,21.1v16.9c0,0.55 -0.45,1 -1,1h-6.58l-29.01,-29h24.22c1.07,0 2.07,0.42 2.83,1.17l4.53,4.54l0.02,-0.02l4.7,4.7c0.18,0.19 0.29,0.44 0.29,0.71z"></path></g></g></svg>